<svg width="34" height="31" viewBox="0 0 34 31" fill="none" xmlns="http://www.w3.org/2000/svg">
<path d="M24.7621 2.17544C24.4975 0.935982 23.3488 0 21.9747 0C21.6607 0 21.4058 0.243105 21.4058 0.54386C21.4058 0.844614 21.6607 1.08772 21.9747 1.08772C22.9158 1.08772 23.6816 1.81975 23.6816 2.7193C23.6816 3.61884 22.9158 4.35088 21.9747 4.35088C21.6607 4.35088 21.4058 4.59398 21.4058 4.89474C21.4058 5.19549 21.6607 5.4386 21.9747 5.4386C23.3482 5.4386 24.4975 4.50261 24.7621 3.26316H32.2161V8.1579H1.49197V3.26316H9.45748H11.1644C11.4784 3.26316 11.7333 3.02005 11.7333 2.7193C11.7333 2.41854 11.4784 2.17544 11.1644 2.17544H10.1311C10.3667 1.54347 10.9926 1.08772 11.7333 1.08772C12.6744 1.08772 13.4402 1.81975 13.4402 2.7193C13.4402 3.61884 12.6744 4.35088 11.7333 4.35088C11.4193 4.35088 11.1644 4.59398 11.1644 4.89474C11.1644 5.19549 11.4193 5.4386 11.7333 5.4386C13.302 5.4386 14.5782 4.21872 14.5782 2.7193C14.5782 1.21988 13.302 0 11.7333 0C10.3599 0 9.21055 0.935982 8.94598 2.17544H0.354034V9.24561V31H33.354V9.24561V2.17544H24.7621ZM32.2161 29.9123H1.49197V9.24561H32.2161V29.9123Z" fill="white"/>
<path d="M15.1472 1.08772C16.0883 1.08772 16.8541 1.81975 16.8541 2.7193C16.8541 3.61884 16.0883 4.35088 15.1472 4.35088C14.8331 4.35088 14.5782 4.59398 14.5782 4.89474C14.5782 5.19549 14.8331 5.4386 15.1472 5.4386C16.7158 5.4386 17.992 4.21872 17.992 2.7193C17.992 1.21988 16.7158 0 15.1472 0C14.8331 0 14.5782 0.243105 14.5782 0.54386C14.5782 0.844614 14.8331 1.08772 15.1472 1.08772Z" fill="white"/>
<path d="M18.561 1.08772C19.502 1.08772 20.2679 1.81975 20.2679 2.7193C20.2679 3.61884 19.502 4.35088 18.561 4.35088C18.2469 4.35088 17.992 4.59398 17.992 4.89474C17.992 5.19549 18.2469 5.4386 18.561 5.4386C20.1296 5.4386 21.4058 4.21872 21.4058 2.7193C21.4058 1.21988 20.1296 0 18.561 0C18.2469 0 17.992 0.243105 17.992 0.54386C17.992 0.844614 18.2469 1.08772 18.561 1.08772Z" fill="white"/>
<path d="M5.47476 13.5961H17.992C18.3061 13.5961 18.561 13.353 18.561 13.0522C18.561 12.7515 18.3061 12.5084 17.992 12.5084H5.47476C5.16069 12.5084 4.90579 12.7515 4.90579 13.0522C4.90579 13.353 5.16069 13.5961 5.47476 13.5961Z" fill="white"/>
<path d="M28.2334 21.2104H19.6989C19.3848 21.2104 19.1299 21.4536 19.1299 21.7543C19.1299 22.0551 19.3848 22.2982 19.6989 22.2982H28.2334C28.5475 22.2982 28.8024 22.0551 28.8024 21.7543C28.8024 21.4536 28.5475 21.2104 28.2334 21.2104Z" fill="white"/>
<path d="M5.47476 17.9473H11.1644C11.4785 17.9473 11.7334 17.7042 11.7334 17.4035C11.7334 17.1027 11.4785 16.8596 11.1644 16.8596H5.47476C5.16069 16.8596 4.90579 17.1027 4.90579 17.4035C4.90579 17.7042 5.16069 17.9473 5.47476 17.9473Z" fill="white"/>
<path d="M28.2334 25.5612H22.5438C22.2297 25.5612 21.9748 25.8043 21.9748 26.1051C21.9748 26.4058 22.2297 26.6489 22.5438 26.6489H28.2334C28.5475 26.6489 28.8024 26.4058 28.8024 26.1051C28.8024 25.8043 28.5475 25.5612 28.2334 25.5612Z" fill="white"/>
<path d="M16.2851 17.4035C16.2851 17.7042 16.54 17.9473 16.8541 17.9473H25.3885C25.7026 17.9473 25.9575 17.7042 25.9575 17.4035C25.9575 17.1027 25.7026 16.8596 25.3885 16.8596H16.8541C16.54 16.8596 16.2851 17.1027 16.2851 17.4035Z" fill="white"/>
<path d="M14.4132 17.7899C14.5157 17.6866 14.5782 17.5452 14.5782 17.4038C14.5782 17.2618 14.5157 17.1204 14.4132 17.0176C14.2027 16.8164 13.8158 16.8164 13.6053 17.0176C13.5029 17.1204 13.4403 17.2618 13.4403 17.4038C13.4403 17.5452 13.5029 17.6866 13.6053 17.7899C13.7134 17.8927 13.8613 17.9476 14.0093 17.9476C14.1572 17.9476 14.3051 17.8927 14.4132 17.7899Z" fill="white"/>
<path d="M7.75061 21.7543C7.75061 22.0551 8.00551 22.2982 8.31958 22.2982H16.8541C17.1681 22.2982 17.423 22.0551 17.423 21.7543C17.423 21.4536 17.1681 21.2104 16.8541 21.2104H8.31958C8.00551 21.2104 7.75061 21.4536 7.75061 21.7543Z" fill="white"/>
<path d="M5.47476 22.2986C5.62269 22.2986 5.77062 22.2388 5.87872 22.1409C5.98114 22.0376 6.04372 21.8962 6.04372 21.7548C6.04372 21.6128 5.98114 21.4714 5.87872 21.3741C5.66821 21.1674 5.28131 21.1674 5.07079 21.3686C4.96838 21.4714 4.90579 21.6128 4.90579 21.7548C4.90579 21.8962 4.96838 22.0376 5.07079 22.1409C5.1789 22.2388 5.32114 22.2986 5.47476 22.2986Z" fill="white"/>
<path d="M28.2334 17.9476C28.3813 17.9476 28.5293 17.8927 28.6374 17.7899C28.7455 17.6866 28.8024 17.5452 28.8024 17.4038C28.8024 17.2618 28.7455 17.1204 28.6374 17.0176C28.4211 16.8164 28.0399 16.8164 27.8294 17.0176C27.727 17.1204 27.6644 17.2618 27.6644 17.4038C27.6644 17.5452 27.727 17.6866 27.8294 17.7899C27.9375 17.8927 28.0855 17.9476 28.2334 17.9476Z" fill="white"/>
<path d="M19.6989 25.5612H5.47476C5.16069 25.5612 4.90579 25.8043 4.90579 26.1051C4.90579 26.4058 5.16069 26.6489 5.47476 26.6489H19.6989C20.013 26.6489 20.2679 26.4058 20.2679 26.1051C20.2679 25.8043 20.013 25.5612 19.6989 25.5612Z" fill="white"/>
</svg>
