<svg width="42" height="37" viewBox="0 0 42 37" fill="none" xmlns="http://www.w3.org/2000/svg">
<g filter="url(#filter0_d_1_11192)">
<path d="M36.8511 9.91404L12.7306 0.950027C12.4221 0.835666 12.0793 0.993915 11.9655 1.30364C11.9653 1.30389 11.9658 1.30339 11.9655 1.30364L9.29489 8.59513C9.18138 8.90486 9.33964 9.24844 9.64841 9.3623L12.4448 10.392L11.8288 12.0756C11.7155 12.3853 11.8738 12.7284 12.1825 12.8423L17.7753 14.902L17.3643 16.0243C16.9908 17.0295 17.3393 18.161 18.2134 18.7792V21.8289H10.1974C9.80942 20.9391 9.01537 20.293 8.06707 20.0959V18.8409C8.06707 18.5109 7.80056 18.2433 7.47129 18.2433H5.06941C4.7404 18.2433 4.47363 18.5109 4.47363 18.8409V28.4023C4.47363 28.7326 4.7404 29 5.06941 29H7.47129C7.80056 29 8.06707 28.7326 8.06707 28.4023V27.1476C9.01537 26.9503 9.80942 26.3045 10.1974 25.4144H18.2134V26.012C18.2134 27.0022 19.0134 27.805 20.0005 27.805C20.9875 27.805 21.7878 27.0022 21.7878 26.012V19.3919C22.3293 19.1226 22.7476 18.6554 22.9561 18.0861L23.3671 16.9638L28.4004 18.8164C28.4662 18.8407 28.5354 18.853 28.6054 18.853C28.8552 18.853 29.0787 18.6967 29.1649 18.4615L29.3882 17.8513C31.3268 18.2172 33.1939 16.9374 33.5584 14.9931C33.6932 14.2745 33.6057 13.5319 33.3077 12.8648L36.9191 11.0047C37.2119 10.8543 37.3276 10.4941 37.1776 10.2004C37.1096 10.067 36.9941 9.9642 36.8541 9.91228L36.8511 9.91404ZM19.4047 19.3237L19.898 19.503C20.1225 19.5838 20.358 19.6302 20.5962 19.6405V21.8289H19.4047V19.3237ZM6.87576 27.805H5.6652V19.4386H6.87576V27.805ZM9.25864 24.2194C9.25764 24.9788 8.78061 25.6557 8.06707 25.91V21.3335C8.78061 21.5876 9.25764 22.2645 9.25864 23.0241V24.2194ZM10.4687 23.0241H20.5962V24.2194H10.4687V23.0241ZM20.0005 26.6097C19.6714 26.6097 19.4047 26.3421 19.4047 26.012V25.4144H20.5962V26.012C20.5962 26.3421 20.3295 26.6097 20.0005 26.6097ZM22.2488 16.5522L21.8378 17.6745C21.6108 18.2935 20.9265 18.611 20.309 18.3837L19.1884 17.9719C18.5709 17.7445 18.2539 17.0578 18.4806 16.4381L18.8919 15.3163L21.9116 16.4283L22.2488 16.5522ZM28.2521 17.4904L13.1523 11.9284L13.5636 10.8061L22.5111 14.102C22.7229 14.1792 22.9604 14.1308 23.1251 13.9763L24.797 12.3976L29.4842 14.1246L28.2521 17.4904ZM32.2801 15.1548C31.9026 16.1758 30.8873 16.8138 29.807 16.7087L30.7275 14.1933L32.2311 13.4166C32.4664 13.9688 32.4839 14.5903 32.2801 15.1548ZM30.2693 13.0886C30.2377 13.0913 30.2065 13.0968 30.1757 13.1051L24.8642 11.1487C24.6525 11.0707 24.4149 11.1191 24.2504 11.2741L22.5766 12.8531L10.6187 8.44817L12.8773 2.27922L35.1675 10.5631L30.2693 13.0886Z" fill="#E3B873"/>
</g>
<defs>
<filter id="filter0_d_1_11192" x="0.473633" y="0.912842" width="40.7696" height="36.0872" filterUnits="userSpaceOnUse" color-interpolation-filters="sRGB">
<feFlood flood-opacity="0" result="BackgroundImageFix"/>
<feColorMatrix in="SourceAlpha" type="matrix" values="0 0 0 0 0 0 0 0 0 0 0 0 0 0 0 0 0 0 127 0" result="hardAlpha"/>
<feOffset dy="4"/>
<feGaussianBlur stdDeviation="2"/>
<feComposite in2="hardAlpha" operator="out"/>
<feColorMatrix type="matrix" values="0 0 0 0 0 0 0 0 0 0 0 0 0 0 0 0 0 0 0.25 0"/>
<feBlend mode="normal" in2="BackgroundImageFix" result="effect1_dropShadow_1_11192"/>
<feBlend mode="normal" in="SourceGraphic" in2="effect1_dropShadow_1_11192" result="shape"/>
</filter>
</defs>
</svg>
