<svg width="34" height="30" viewBox="0 0 34 30" fill="none" xmlns="http://www.w3.org/2000/svg">
<path d="M22.4261 9.67495L17.5806 8.20121C17.2169 8.0912 16.843 8.05247 16.4726 8.06618V8.05354H10.5833L0.139648 4.53528L0.171223 19.412L3.1692 20.9312L4.94426 16.5321L7.53734 17.5838L8.20969 15.8803L9.18345 16.8675L8.27496 17.7887C7.95921 18.1088 7.77826 18.5516 7.77826 19.0045C7.77826 19.9314 8.50739 20.6851 9.41429 20.7177C9.44586 21.6161 10.1583 22.3383 11.0445 22.3703C11.0761 23.2687 11.7885 23.9909 12.6747 24.0229C12.7073 24.9423 13.4502 25.6814 14.3648 25.6814C14.8114 25.6814 15.2484 25.498 15.5639 25.1779L16.4726 24.2569L16.8377 24.627C17.1535 24.9471 17.5902 25.1306 18.037 25.1306C18.9516 25.1306 19.6948 24.3914 19.7269 23.472C20.6131 23.44 21.3255 22.7178 21.3571 21.8194C22.2433 21.7874 22.9557 21.0652 22.9873 20.1668C23.8942 20.1337 24.6236 19.3806 24.6236 18.4537C24.6236 18.3754 24.6111 18.2982 24.6008 18.2205L25.3806 17.4299L26.0107 18.7081L29.424 16.9778L31.4866 20.97L33.8613 19.3658V5.12784L22.4261 9.67495ZM2.60616 19.4142L1.25696 18.7302L1.22963 6.06336L7.18418 8.06968L2.60616 19.4142ZM6.93212 16.1515L5.35526 15.5124L8.21791 8.41774L9.77567 8.94279L6.93212 16.1515ZM8.86506 19.0045C8.86506 18.8418 8.92953 18.6828 9.04309 18.5674L9.99855 17.5991C10.1121 17.484 10.2692 17.4184 10.4294 17.4184C10.7654 17.4184 11.0386 17.6957 11.0386 18.0359C11.0386 18.1984 10.9739 18.3576 10.8603 18.4728L9.90515 19.4414C9.79159 19.5565 9.63451 19.6218 9.47425 19.6218C9.13835 19.6218 8.86506 19.3448 8.86506 19.0045ZM10.4952 20.6572C10.4952 20.4944 10.5597 20.3355 10.6733 20.2201L11.6287 19.2517C11.7423 19.1366 11.8994 19.071 12.0596 19.071C12.3955 19.071 12.6688 19.3483 12.6688 19.6886C12.6688 19.851 12.6041 20.0103 12.4905 20.1254L11.5353 21.094C11.4218 21.2091 11.2647 21.2745 11.1044 21.2745C10.7685 21.2745 10.4952 20.9974 10.4952 20.6572ZM12.1254 22.3098C12.1254 22.147 12.1899 21.9881 12.3035 21.8727L13.2589 20.9043C13.3725 20.7892 13.5296 20.7236 13.6898 20.7236C14.0257 20.7236 14.299 21.0009 14.299 21.3412C14.299 21.5036 14.2343 21.6629 14.1207 21.778L13.1655 22.7466C13.052 22.8617 12.8949 22.9271 12.7346 22.9271C12.3987 22.9271 12.1254 22.65 12.1254 22.3098ZM15.7509 23.4306L14.7957 24.3992C14.6822 24.5143 14.5251 24.5797 14.3648 24.5797C14.0289 24.5797 13.7556 24.3026 13.7556 23.9624C13.7556 23.7997 13.8201 23.6407 13.9337 23.5253L14.8891 22.557C15.0027 22.4418 15.1598 22.3762 15.32 22.3762C15.6559 22.3762 15.9292 22.6535 15.9292 22.9938C15.9292 23.1562 15.8645 23.3155 15.7509 23.4306ZM22.9276 19.071C22.7673 19.071 22.6103 19.0056 22.4967 18.8905L17.9436 14.2745L17.1752 15.0535L21.7283 19.6692C21.8419 19.7846 21.9066 19.9435 21.9066 20.1063C21.9066 20.4465 21.6333 20.7236 21.2974 20.7236C21.1371 20.7236 20.9801 20.6582 20.8665 20.5431L16.3134 15.9271L15.545 16.7061L20.0981 21.3218C20.2117 21.4372 20.2764 21.5962 20.2764 21.7589C20.2764 22.0992 20.0031 22.3762 19.6672 22.3762C19.5069 22.3762 19.3499 22.3108 19.2363 22.1957L14.6832 17.5797L13.9148 18.3587L18.4679 22.9744C18.5815 23.0898 18.6462 23.2488 18.6462 23.4115C18.6462 23.7518 18.3729 24.0288 18.037 24.0288C17.8768 24.0288 17.7197 23.9635 17.6061 23.8483L16.9932 23.2267C17.0041 23.1498 17.016 23.0726 17.016 22.9938C17.016 22.0666 16.2866 21.3132 15.3797 21.2806C15.3482 20.3823 14.6357 19.66 13.7495 19.628C13.718 18.7296 13.0055 18.0074 12.1193 17.9754C12.0867 17.056 11.344 16.3166 10.4294 16.3166C10.3522 16.3166 10.2761 16.3293 10.1997 16.3397L8.64828 14.767L10.863 9.15528H14.074L12.0787 11.1783C11.758 11.5027 11.582 11.9347 11.582 12.3941C11.582 13.342 12.3427 14.1131 13.278 14.1131C13.7246 14.1131 14.1616 13.9297 14.4771 13.6096L15.9168 12.1498C16.2113 11.8523 16.73 11.8408 17.0367 12.1256L18.3071 13.3062C18.7293 13.6984 19.1984 14.0246 19.7004 14.2802L23.3585 18.0166C23.4721 18.132 23.5368 18.2909 23.5368 18.4537C23.5368 18.7939 23.2635 19.071 22.9276 19.071ZM24.0802 17.1903L21.8466 14.9088C22.0462 14.9279 22.2473 14.9394 22.45 14.9394V13.8377C21.1849 13.8377 19.9742 13.3603 19.0418 12.4936L17.7712 11.3136C17.054 10.646 15.8374 10.6726 15.1489 11.3714L13.7095 12.8309C13.5954 12.9455 13.4383 13.0114 13.278 13.0114C12.9421 13.0114 12.6688 12.7343 12.6688 12.3941C12.6688 12.2287 12.7317 12.074 12.8469 11.957L14.9183 9.85732C15.527 9.24028 16.441 9.00546 17.2681 9.25669L22.0685 10.7164L24.8674 16.3922L24.0802 17.1903ZM26.4966 17.2301L23.2019 10.5497L25.6082 9.59265L28.9196 16.0016L26.4966 17.2301ZM32.7746 18.7764L31.8886 19.3752L26.626 9.18837L32.7746 6.74361V18.7764Z" fill="#E3B873"/>
<ellipse cx="19.6667" cy="1.70809" rx="0.485591" ry="0.49227" fill="#E3B873"/>
<ellipse cx="7.40991" cy="24.9527" rx="0.485591" ry="0.49227" fill="#E3B873"/>
<ellipse cx="9.46801" cy="26.6644" rx="0.485591" ry="0.49227" fill="#E3B873"/>
<ellipse cx="11.8166" cy="27.9202" rx="0.485591" ry="0.49227" fill="#E3B873"/>
<ellipse cx="14.3655" cy="28.7236" rx="0.485591" ry="0.49227" fill="#E3B873"/>
<ellipse cx="22.2141" cy="2.49166" rx="0.485591" ry="0.49227" fill="#E3B873"/>
<ellipse cx="24.5632" cy="3.76333" rx="0.485591" ry="0.49227" fill="#E3B873"/>
<path d="M26.8305 3.05176V5.89199H23.9971" stroke="#E3B873" stroke-linecap="round" stroke-linejoin="round"/>
<path d="M5.01039 24.6317L5.01039 22.3337L7.27441 22.3337" stroke="#E3B873" stroke-linecap="round" stroke-linejoin="round"/>
<path d="M7.80078 5.06204C9.3359 3.70786 10.3124 3.08484 12.1519 2.35671C14.1033 1.5843 15.4237 1.40291 17.5441 1.40292" stroke="#E3B873" stroke-linecap="round"/>
<path d="M28.4046 22.7911C27.2633 24.5958 25.1376 26.3578 23.4089 27.3254C21.575 28.3519 19.6102 28.9303 16.9931 29.0685" stroke="#E3B873" stroke-linecap="round"/>
</svg>
