<svg width="41" height="34" viewBox="0 0 41 34" fill="none" xmlns="http://www.w3.org/2000/svg">
<path d="M20.8396 24.743C20.4878 24.743 20.2026 25.0207 20.2026 25.3633V26.6864C20.2026 27.029 20.4878 27.3067 20.8396 27.3067C21.1914 27.3067 21.4765 27.029 21.4765 26.6864V25.3633C21.4765 25.0207 21.1914 24.743 20.8396 24.743Z" fill="white"/>
<path d="M40.1144 15.855C39.8658 15.6129 39.5354 15.4796 39.1838 15.4796C39.1837 15.4796 39.1836 15.4796 39.1835 15.4796L37.5484 15.4798C37.5277 15.4798 37.5135 15.4571 37.5091 15.4361C37.0597 13.2892 36.0518 11.2652 34.5943 9.58287C33.1855 7.95681 31.3813 6.678 29.3693 5.87478C29.0448 4.54058 28.3595 3.16499 27.0082 2.13094C25.6999 1.12983 24.3823 0.937186 24.3269 0.929425C24.1444 0.904089 23.959 0.957043 23.8195 1.0749C23.6799 1.19275 23.5998 1.36363 23.5998 1.5435V4.89315H21.2883C20.717 2.98421 18.9055 1.58488 16.7634 1.58488C14.5758 1.58488 12.7319 3.04394 12.2027 5.01511C9.05336 5.43289 6.15586 6.9188 4.00586 9.22908C1.74508 11.6587 0.5 14.8036 0.5 18.0849C0.5 25.4499 4.42617 31.4424 5.62961 33.1036C6.00133 33.6168 6.61016 33.9232 7.2582 33.9232H9.96922C11.0697 33.9232 11.965 33.0513 11.965 31.9796V31.121C12.651 31.2238 13.348 31.2766 14.0457 31.2766H20.2028V31.9796C20.2028 33.0513 21.0981 33.9232 22.1986 33.9232H25.1765C26.1113 33.9232 26.932 33.277 27.1279 32.3869L27.4548 30.9014C31.641 29.9086 35.0069 27.0485 36.6635 23.3369H39.1837C39.9095 23.3369 40.5 22.7618 40.5 22.0549V16.7617C40.5 16.4191 40.3631 16.0971 40.1144 15.855ZM16.7633 2.82558C18.6598 2.82558 20.2027 4.32823 20.2027 6.17524C20.2027 6.64756 20.0989 7.11281 19.9033 7.53987L13.6232 7.53987C13.4277 7.11266 13.3237 6.64756 13.3237 6.17524C13.3237 4.32815 14.8667 2.82558 16.7633 2.82558ZM39.2261 22.0548C39.2261 22.0776 39.2071 22.0962 39.1836 22.0962H37.1423C37.4893 21.0383 37.7028 19.9258 37.7639 18.7786C37.7822 18.4366 37.5121 18.1448 37.1608 18.1271C36.8095 18.1097 36.5099 18.3723 36.4917 18.7144C36.2219 23.781 32.6809 28.1069 27.7548 29.5375L28.6448 25.4932C28.7185 25.1582 28.4994 24.8285 28.1554 24.7567C27.8116 24.6848 27.4728 24.8983 27.3991 25.2333L25.8823 32.1268C25.8114 32.4488 25.5145 32.6825 25.1765 32.6825H22.1984C21.8004 32.6825 21.4766 32.3672 21.4766 31.9795V29.3329C21.4766 28.9903 21.1914 28.7126 20.8396 28.7126C20.4878 28.7126 20.2027 28.9903 20.2027 29.3329V30.0359H14.0455C13.3467 30.0359 12.6491 29.9774 11.9648 29.8638V25.3631C11.9648 25.0204 11.6797 24.7427 11.3279 24.7427C10.9761 24.7427 10.6909 25.0204 10.6909 25.3631V31.9796C10.6909 32.3672 10.3671 32.6826 9.96906 32.6826H7.2582C7.02008 32.6826 6.80586 32.5754 6.67055 32.3885C5.52188 30.8026 1.77391 25.0847 1.77391 18.0848C1.77391 15.1121 2.9018 12.2629 4.94977 10.0622C6.82398 8.04803 9.32469 6.7257 12.0519 6.29141C12.0629 6.71649 12.1345 7.13678 12.2629 7.53972H12.0074C11.6556 7.53972 11.3705 7.81742 11.3705 8.16003C11.3705 8.50263 11.6556 8.78034 12.0074 8.78034H21.5191C21.8709 8.78034 22.1561 8.50263 22.1561 8.16003C22.1561 7.81742 21.8709 7.53972 21.5191 7.53972H21.2636C21.4038 7.10003 21.4766 6.6398 21.4766 6.17508C21.4766 6.16116 21.4757 6.14754 21.4755 6.13369H23.5998V7.49833C23.5998 7.84093 23.8849 8.11864 24.2367 8.11864C24.5885 8.11864 24.8737 7.84093 24.8737 7.49833V2.35797C26.0822 2.80336 28.3556 4.17142 28.3556 8.1601C28.3556 8.50271 28.6408 8.78041 28.9926 8.78041C29.3444 8.78041 29.6295 8.50271 29.6295 8.1601C29.6295 7.89731 29.6198 7.61983 29.5974 7.33307C31.1339 8.06196 32.5123 9.10369 33.6207 10.383C34.941 11.9071 35.854 13.7401 36.2609 15.684C36.3866 16.2847 36.9282 16.7206 37.5487 16.7205L39.1838 16.7203C39.188 16.7203 39.2013 16.7203 39.2138 16.7324C39.2262 16.7445 39.2262 16.7573 39.2262 16.7617V22.0548H39.2261Z" fill="white"/>
<path d="M33.6658 15.8833C33.2705 14.8504 32.224 14.1564 31.0621 14.1564C29.9001 14.1564 28.8538 14.8503 28.4583 15.8833C28.3354 16.2043 28.503 16.5615 28.8326 16.6812C29.1623 16.801 29.5291 16.6377 29.6519 16.3167C29.8625 15.7666 30.4292 15.397 31.062 15.397C31.6948 15.397 32.2616 15.7666 32.4722 16.3167C32.5677 16.5663 32.8107 16.7205 33.0691 16.7205C33.143 16.7205 33.2182 16.7078 33.2915 16.6812C33.6211 16.5615 33.7887 16.2042 33.6658 15.8833Z" fill="white"/>
<path d="M17.4002 17.612V14.4421C18.6497 14.59 19.5233 15.1538 19.5233 15.6659C19.5233 16.0085 19.8085 16.2862 20.1603 16.2862C20.5121 16.2862 20.7972 16.0085 20.7972 15.6659C20.7972 14.3977 19.3493 13.3781 17.4002 13.1939V13.1226C17.4002 12.78 17.115 12.5023 16.7632 12.5023C16.4114 12.5023 16.1263 12.78 16.1263 13.1226V13.1939C14.1772 13.3781 12.7292 14.3977 12.7292 15.6659C12.7292 17.4772 14.5667 18.1309 16.1263 18.558V21.728C14.8767 21.5801 14.0032 21.0163 14.0032 20.5042C14.0032 20.1616 13.718 19.8839 13.3662 19.8839C13.0144 19.8839 12.7292 20.1616 12.7292 20.5042C12.7292 21.7723 14.1772 22.7919 16.1263 22.9761V23.0474C16.1263 23.39 16.4114 23.6677 16.7632 23.6677C17.115 23.6677 17.4002 23.39 17.4002 23.0474V22.9761C19.3493 22.7919 20.7972 21.7723 20.7972 20.5042C20.7972 18.6928 18.9596 18.0391 17.4002 17.612ZM16.1263 17.2593C14.5575 16.78 14.0032 16.3445 14.0032 15.6659C14.0032 15.1538 14.8767 14.59 16.1263 14.4421V17.2593ZM17.4002 21.7281V18.9108C18.9689 19.39 19.5233 19.8256 19.5233 20.5043C19.5233 21.0164 18.6496 21.5802 17.4002 21.7281Z" fill="white"/>
</svg>
