<svg width="29" height="28" viewBox="0 0 29 28" fill="none" xmlns="http://www.w3.org/2000/svg">
<path d="M26.413 21.1434C25.8313 20.7342 25.16 20.5143 24.4819 20.4785C21.9262 18.8053 20.252 17.5495 19.2746 16.5723L16.2721 13.5707L18.0941 11.5318C18.4394 11.7266 18.8103 11.855 19.1813 11.908C19.4612 11.9546 19.6478 11.9546 19.8345 11.9546C20.2077 11.9546 20.301 11.9546 20.6743 12.2811C20.4877 12.421 20.3943 12.6543 20.3943 12.8874C20.3943 13.1206 20.4877 13.4005 20.6743 13.5871L22.3073 15.2196C22.5406 15.4995 22.9138 15.6394 23.287 15.6394C23.6603 15.6394 24.0335 15.4995 24.2668 15.173L27.5795 11.8613C27.8594 11.6281 27.9994 11.255 27.9994 10.8818C27.9994 10.5086 27.8594 10.1822 27.5795 9.9023L25.9465 8.26978C25.7599 8.08322 25.5266 7.98992 25.2933 7.98992C25.06 7.98992 24.8267 8.12985 24.64 8.26978C24.2668 7.94329 24.2668 7.84999 24.2668 7.47682C24.2668 7.29027 24.2668 7.05704 24.1734 6.77718C24.0801 6.12415 23.7535 5.47119 23.2403 4.95809L21.5607 3.27894C20.5809 2.29943 20.1143 1.83302 18.8546 1.2733C16.1486 0.0139351 13.3958 0.247169 9.38336 2.06625C9.15006 2.15956 9.05679 2.34611 9.10343 2.57935C9.15007 2.81258 9.33673 2.95251 9.56997 2.95251H10.1765C12.2294 2.95251 13.3024 2.95251 15.1687 4.81822C15.9859 5.63517 16.0095 6.88781 15.2773 7.80943C15.1786 7.8243 15.1035 7.86857 15.0288 7.94329L12.9562 10.2558L11.3896 8.68962C9.66762 6.96816 8.45645 5.33946 7.52429 3.52589C7.47536 2.60821 7.10701 1.74961 6.44402 1.0868C5.65089 0.293903 4.53114 -0.0792601 3.41139 0.0140444C3.27142 0.0606694 3.13145 0.153974 3.08481 0.247278C2.99148 0.387208 2.99148 0.573762 3.08481 0.713692L4.39117 3.04587C4.11123 3.65221 3.45803 4.02537 2.80487 3.97875L1.45182 1.73982C1.40518 1.59989 1.21852 1.50659 1.07855 1.50659C0.938584 1.45996 0.798615 1.55321 0.705284 1.69314C-0.414469 3.3723 0.00543857 5.61117 1.68507 6.77723C2.26375 7.19046 2.9157 7.42025 3.57596 7.46737C3.58334 7.47048 3.59029 7.47431 3.59794 7.47688C5.41754 8.40976 7.05053 9.62245 8.7768 11.3483L10.4832 13.0154L0.565369 24.0819C0.1921 24.4551 0.00549316 24.9681 0.00549316 25.4812C0.00549316 25.9943 0.1921 26.4607 0.565369 26.8339L1.21858 27.4869C1.59185 27.8134 2.05839 28 2.52494 28C2.99148 28 3.50472 27.8134 3.87799 27.4403L13.7845 16.3545L16.6618 19.2311C17.6407 20.2096 18.899 21.9332 20.5762 24.448C20.6364 25.3457 21.0039 26.1839 21.6541 26.8339C22.3539 27.5335 23.287 27.9067 24.2668 27.9067C24.4068 27.9067 24.5468 27.9067 24.6401 27.9067C24.7801 27.9067 24.92 27.8134 25.0134 27.6735C25.1067 27.5335 25.1067 27.347 25.0134 27.207L23.6603 24.9216C23.9869 24.3152 24.5935 23.942 25.2933 23.9887L26.5997 26.2275C26.6463 26.3675 26.833 26.4608 26.9729 26.4608C27.1595 26.4141 27.2995 26.3675 27.3928 26.2275C28.5125 24.5483 28.0459 22.3095 26.413 21.1434ZM15.7754 4.072C14.2823 2.62608 13.1626 2.15961 11.9029 2.01968C14.5623 1.18011 16.5218 1.22673 18.4814 2.11299C19.6012 2.5794 19.9744 2.95256 20.9542 3.93207L22.6338 5.61122C23.0071 5.98439 23.2404 6.4508 23.287 6.91721C23.3337 7.15045 23.3337 7.337 23.3337 7.47693C23.3337 7.99003 23.3803 8.36313 23.9402 8.92285C24.1268 9.10941 24.4067 9.20271 24.64 9.20271C24.92 9.20271 25.1533 9.10941 25.2933 8.92285L26.9262 10.5554C27.0196 10.6487 27.0662 10.7419 27.0662 10.8819C27.0662 11.0218 27.0196 11.1151 26.9262 11.2084L23.6136 14.52C23.427 14.7066 23.1471 14.7066 22.9604 14.52L21.3274 12.8875C21.514 12.7476 21.6074 12.5143 21.5607 12.2345C21.5607 12.0012 21.4674 11.7214 21.2808 11.5348C20.7209 10.9751 20.3476 10.9285 19.8345 10.9285C19.6945 10.9285 19.5079 10.9285 19.2746 10.8819C18.7613 10.8352 18.3414 10.602 17.9682 10.2288L15.962 8.22321C16.9884 6.96389 16.8951 5.19144 15.7754 4.072ZM1.12525 2.95256L2.10503 4.63172C2.19836 4.77165 2.33833 4.86495 2.4783 4.86495H2.7116C3.78471 4.91158 4.7645 4.35186 5.23104 3.41903L5.32437 3.1858C5.4177 3.04587 5.4177 2.90594 5.32437 2.76601L4.2979 0.993551C4.85777 1.08686 5.37101 1.36671 5.79092 1.7865C6.27195 2.30747 6.57994 2.96634 6.59815 3.67408C6.58912 3.70999 6.58404 3.74863 6.58404 3.7922C6.58404 4.00821 6.55796 4.21893 6.50968 4.42204C6.33368 5.09742 5.91164 5.68627 5.32432 6.07775C4.39117 6.68409 3.13145 6.68409 2.19836 6.03112C1.21858 5.33136 0.798669 4.072 1.12525 2.95256ZM9.43006 10.6953C8.03037 9.24939 6.63068 8.12996 5.13766 7.2437C5.37096 7.15039 5.65089 7.01046 5.88414 6.87053C6.58398 6.40412 7.05053 5.79772 7.33047 5.05145C8.21692 6.54405 9.33667 7.94335 10.7364 9.34264L12.3389 10.9447L11.0822 12.347L9.43006 10.6953ZM3.22478 26.7406C2.85151 27.1137 2.245 27.1604 1.87173 26.7872L1.21852 26.1809C1.03191 25.9943 0.938584 25.7611 0.938584 25.5278C0.938584 25.248 1.03191 25.0147 1.26516 24.7816L1.52941 24.486L2.19831 25.1547C2.29164 25.248 2.38491 25.2947 2.52488 25.2947C2.66485 25.2947 2.75818 25.248 2.85146 25.1547C3.03807 24.9682 3.03807 24.6883 2.85146 24.5017L2.14593 23.7964L2.7625 23.1067L3.50467 23.8487C3.598 23.942 3.69127 23.9886 3.83124 23.9886C3.97121 23.9886 4.06454 23.942 4.15782 23.8487C4.34442 23.6621 4.34442 23.3823 4.15782 23.1957L3.37913 22.4171L15.3801 8.99413L17.3396 10.9531L15.4142 13.1067C15.3592 13.13 15.3106 13.1656 15.2621 13.214L13.3959 15.313C13.3426 15.3663 13.3051 15.4273 13.2822 15.4914L3.22478 26.7406ZM14.4229 15.6401L15.6997 14.2113L18.7147 17.2254C19.5545 18.1116 21.0008 19.231 23.1003 20.6303C22.8204 20.7236 22.5405 20.8635 22.2605 21.0501C21.6817 21.4118 21.2717 21.9139 20.986 22.4691C20.9818 22.477 20.9779 22.4851 20.9738 22.4931C20.9568 22.5265 20.9403 22.56 20.9243 22.5938C20.9012 22.6416 20.8794 22.69 20.8584 22.7389C20.8441 22.7719 20.8298 22.805 20.8163 22.8383C20.8144 22.8431 20.8125 22.8479 20.8106 22.8527C20.7959 22.8892 20.7813 22.9257 20.7676 22.9625C20.5025 22.5739 20.2476 22.2072 20.0024 21.8617L20.6276 21.2367C20.8142 21.0501 20.8142 20.7703 20.6276 20.5837C20.441 20.3971 20.161 20.3971 19.9744 20.5837L19.4542 21.1037C19.2604 20.8406 19.0731 20.5925 18.8925 20.3593L19.3212 19.9307C19.5078 19.7441 19.5078 19.4642 19.3212 19.2776C19.1346 19.0911 18.8547 19.0911 18.668 19.2776L18.3119 19.6337C17.9689 19.2205 17.6526 18.8689 17.3617 18.578L14.4229 15.6401ZM26.9262 24.9681L25.9464 23.289C25.8531 23.149 25.7131 23.0557 25.5731 23.0557H25.3398C24.2667 22.9624 23.2869 23.5688 22.8204 24.5017L22.7271 24.7349C22.6337 24.8748 22.6337 25.0147 22.7271 25.1547L23.7535 26.9271C23.1936 26.8338 22.6804 26.554 22.2605 26.1342C21.7886 25.6231 21.4835 24.9792 21.4548 24.2868C21.4628 24.2527 21.4673 24.2161 21.4673 24.1752C21.4673 23.5843 21.6549 23.0311 21.9819 22.5625C22.1829 22.2829 22.4342 22.0382 22.727 21.843C23.1936 21.5166 23.7068 21.3766 24.2667 21.3766C24.8265 21.3766 25.3864 21.5632 25.853 21.8897C26.8329 22.5893 27.2528 23.8487 26.9262 24.9681Z" fill="#E3B873"/>
</svg>
